<?xml version="1.0" encoding="UTF-8" standalone="no"?><!DOCTYPE svg PUBLIC "-//W3C//DTD SVG 1.1//EN" "http://www.w3.org/Graphics/SVG/1.1/DTD/svg11.dtd"><svg width="100%" height="100%" viewBox="0 0 2084 1250" version="1.1" xmlns="http://www.w3.org/2000/svg" xmlns:xlink="http://www.w3.org/1999/xlink" xml:space="preserve" xmlns:serif="http://www.serif.com/" style="fill-rule:evenodd;clip-rule:evenodd;stroke-linejoin:round;stroke-miterlimit:2;"><rect id="Artboard1" x="0" y="0" width="2083.33" height="1250" style="fill:none;"/><g><path d="M1499.1,566.16c-222.161,-52.028 -452.8,-27.199 -566.934,60.304c-3.171,1.769 -5.807,-1.368 -1.469,-6.007c60.038,-72.619 278.929,-172.704 478.631,-104.924c-438.784,-203.172 -938.873,-208.212 -1243.8,149.31c-13.316,8.376 -20.19,7.275 -8.91,-14.751c287.338,-467.484 977.084,-409.583 1347.85,-113.934c35.242,25.93 20.692,37.077 -5.373,30.002" style="fill:#2a2e70;fill-rule:nonzero;"/><path d="M514.939,574.002l309.965,0c0.467,-0.033 0.968,-0.067 1.435,-0.067l22.393,0c11.514,0 19.256,9.445 17.12,20.992l-6.975,38.145c-2.102,11.513 -13.282,20.958 -24.829,20.958l-5.072,0l-0.034,0.2l-272.521,0l-11.78,64.176c92.542,0 51.727,-0.034 144.27,-0.034c11.546,0 19.256,9.478 17.153,20.992l-6.508,35.441c-2.135,11.547 -13.282,20.992 -24.829,20.992l-7.609,0l0,0.1l-136.661,0l-12.314,67.313l271.219,0l-0.033,0.1l6.407,0c11.547,0 19.256,9.411 17.121,20.958l-6.975,38.178c-2.103,11.547 -13.283,20.991 -24.83,20.991l-22.359,0c-0.367,0 -0.768,0 -1.135,-0.033l-311.467,0c-0.4,0.033 -0.767,0.033 -1.135,0.033l-22.393,0c-11.547,0 -19.256,-9.444 -17.12,-20.991l2.103,-11.447l2.002,-10.913l51.794,-282.866l2.103,-11.647l1.969,-10.746c2.136,-11.547 13.316,-20.958 24.829,-20.958l22.393,0c0.768,0 1.535,0.033 2.303,0.133" style="fill:#2a2e70;fill-rule:nonzero;"/><path d="M910.739,678.625l48.357,0c11.046,0 18.421,9.044 16.419,20.057l-2.002,10.78l0.1,0.133l-2.804,15.318c121.677,-99.183 256.202,-55.899 231.707,77.925l-17.554,96.014c-0.067,0.867 -0.167,1.735 -0.334,2.669l-3.137,17.087c-2.002,11.08 -12.782,20.157 -23.862,20.157l-39.646,0l-0.067,0l-21.459,0c-11.079,0 -18.521,-9.077 -16.486,-20.157l3.137,-17.087c0.067,-0.433 0.167,-0.801 0.267,-1.201l15.418,-84.333c21.125,-115.336 -117.104,-99.283 -142.834,-9.878l-19.39,105.925l-0.167,0l-1.201,6.674c-2.036,11.013 -12.682,20.057 -23.695,20.057l-39.346,0l-0.1,0l-21.325,0c-11.013,0 -18.422,-9.01 -16.386,-20.057l3.137,-16.986l0,-0.201l34.006,-185.652c0,-0.066 0.034,-0.1 0.034,-0.2l3.103,-16.987c2.036,-11.013 12.682,-20.057 23.728,-20.057l12.382,0" style="fill:#2a2e70;fill-rule:nonzero;"/><path d="M1582.2,786.419c-0.634,-70.249 -58.402,-110.964 -156.117,-110.964c-107.026,0 -185.952,51.294 -201.404,135.66c-14.984,81.796 44.052,132.289 152.346,132.289c75.923,0 124.514,-17.053 176.875,-70.817c9.345,-9.644 3.438,-20.357 -8.042,-20.357l-46.922,0l-0.101,0l-22.159,0c-9.478,0 -19.656,5.473 -27.032,12.415c-54.497,35.808 -121.777,19.99 -110.864,-34.975l155.851,0c0.667,0.1 1.368,0.134 2.069,0.134l61.706,0c9.01,0 17.32,-5.974 20.757,-14.117c0.234,-0.367 0.401,-0.701 0.468,-1.035c0.033,-0.133 0.033,-0.2 0.066,-0.333c0.534,-1.569 0.935,-3.204 1.068,-4.873l1.702,-17.253c0.201,-2.003 0.1,-3.938 -0.267,-5.774m-107.56,-3.17l-130.453,0c10.545,-33.974 37.777,-51.661 74.688,-51.661c39.379,0 61.238,18.588 55.765,51.661" style="fill:#2a2e70;fill-rule:nonzero;"/><path d="M1927.27,785.351c6.407,-35.041 9.878,-60.805 -8.744,-81.229c-20.157,-22.193 -61.673,-32.839 -123.779,-32.839c-55.866,0 -133.691,5.34 -169.533,64.143c-6.808,11.146 0.567,20.657 11.947,20.657l63.308,0c32.705,0 37.311,-28.433 80.862,-28.433c30.402,0 44.553,7.542 41.883,22.193l-1.135,6.24c-3.571,19.523 -47.222,20.391 -131.722,34.241c-64.709,10.579 -100.986,35.875 -108.795,78.492c-8.209,44.82 28.033,74.188 97.582,74.188c42.917,0 81.296,-14.851 118.072,-37.845c0.067,0.434 0.167,0.901 0.267,1.368c3.271,13.449 6.842,31.704 24.529,31.704l16.353,0c0.033,0.1 0.067,0.167 0.067,0.267l47.723,0l0.333,-0.267l6.074,0c11.347,0 22.226,-9.511 19.523,-20.657c-3.471,-14.15 -5.206,-20.825 -2.303,-36.844l17.488,-95.379Zm-120.609,54.965c-4.906,26.665 -36.944,48.891 -76.056,48.891c-26.064,0 -40.582,-12.415 -37.311,-30.169c2.736,-15.084 16.586,-22.56 43.618,-27.966c26.431,-5.273 51.861,-1.702 73.353,-10.513l-3.604,19.757Z" style="fill:#2a2e70;fill-rule:nonzero;"/></g></svg>