<?xml version="1.0" encoding="utf-8"?>
<!-- Generator: Adobe Illustrator 22.0.1, SVG Export Plug-In . SVG Version: 6.00 Build 0)  -->
<svg version="1.1" id="Layer_1" xmlns="http://www.w3.org/2000/svg" xmlns:xlink="http://www.w3.org/1999/xlink" x="0px" y="0px"
	 viewBox="0 0 140 47.2" style="enable-background:new 0 0 140 47.2;" xml:space="preserve">
<style type="text/css">
	.st0{fill:#28345C;}
	.st1{fill:#00D3B7;}
	.st2{fill:#00DADC;}
	.st3{fill:#928DF2;}
	.st4{fill:#4057E3;}
	.st5{fill:#24345F;}
</style>
<g>
	<path class="st0" d="M111.7,27.5l-1.3-2.4c-0.1-0.2-0.3-0.3-0.4-0.3c-0.1,0-0.1,0-0.2,0.1c-0.7,0.4-1.5,0.6-2.3,0.6
		c-0.9,0-1.6-0.2-2.2-0.8c-0.6-0.5-0.9-1.3-0.9-2.3v-9.1h4.6c0.6,0,1-0.5,1-1V10c0-0.6-0.5-1-1-1h-4.6l0-6.8c0-0.8-0.9-1.2-1.5-0.6
		L100.4,4c-0.7,0.7-1.1,1.6-1.1,2.6c0,0,0,0,0,0l0,15.8c0,2.4,0.8,4.1,2,5.3c1.2,1.2,3,1.8,5,1.8c1.8,0,3.6-0.5,5.2-1.4
		c0.2-0.1,0.3-0.3,0.3-0.4C111.7,27.7,111.7,27.6,111.7,27.5"/>
	<path class="st1" d="M3.8,6.2c-0.4-0.4-1.1-0.4-1.6,0L0.3,8.1c-0.4,0.4-0.4,1.1,0,1.6L6.7,16c0.4,0.4,1.1,0.4,1.6,0l1.9-1.9
		c0.4-0.4,0.4-1.1,0-1.6L3.8,6.2z"/>
	<path class="st2" d="M21.2,6.2c-0.4-0.4-1.1-0.4-1.6,0l-6.3,6.3c-0.4,0.4-0.4,1.1,0,1.6l1.9,1.9c0.4,0.4,1.1,0.4,1.6,0l6.3-6.3
		c0.4-0.4,0.4-1.1,0-1.6L21.2,6.2z"/>
	<path class="st3" d="M8.2,19.1c-0.4-0.4-1.1-0.4-1.6,0l-6.3,6.3c-0.4,0.4-0.4,1.1,0,1.6l1.9,1.9c0.4,0.4,1.1,0.4,1.6,0l6.3-6.3
		c0.4-0.4,0.4-1.1,0-1.6L8.2,19.1z"/>
	<path class="st4" d="M16.7,19.1c-0.4-0.4-1.1-0.4-1.6,0l-1.9,1.9c-0.4,0.4-0.4,1.1,0,1.6l6.3,6.3c0.4,0.4,1.1,0.4,1.6,0l1.9-1.9
		c0.4-0.4,0.4-1.1,0-1.6L16.7,19.1z"/>
	<path class="st5" d="M10.3,5.5h2.7c0.6,0,1.1-0.5,1.1-1.1l0-3.1c0-0.6-0.5-1.1-1.1-1.1l-2.7,0c-0.6,0-1.1,0.5-1.1,1.1v3.1
		C9.2,5,9.7,5.5,10.3,5.5z"/>
	<path class="st5" d="M79.5,8.5c-2.7,0-4.7,1-6,3L73,12.2v-2C73,9.5,72.4,9,71.8,9h-2.7c-0.6,0-1.2,0.5-1.2,1.2l0,17.7
		c0,0.7,0.6,1.3,1.3,1.3h2.4c0.7,0,1.3-0.6,1.3-1.3v-9.2c0-1.7,0.4-3.2,1.2-4.3c0.8-1.1,2-1.7,3.6-1.7c1.3,0,2.3,0.4,2.9,1.2
		c0.7,0.8,1,2,1,3.6v10.7c0,0.5,0.4,1,1,1h2.8c0.7,0,1.3-0.6,1.3-1.3V16.3c0-2.5-0.8-4.4-2.1-5.7C83.4,9.2,81.6,8.5,79.5,8.5z"/>
	<path class="st5" d="M138.4,19.3c-0.4-0.3-1-0.7-1.7-1c-1.5-0.6-2.3-0.7-4-1l-0.5-0.1c-1-0.2-1.8-0.3-2.5-0.5
		c-0.7-0.2-1.2-0.5-1.6-0.9c-0.3-0.3-0.4-0.6-0.5-1.1l0,0c0-0.6,0.3-1.2,0.9-1.6c0.6-0.4,1.4-0.6,2.6-0.6c1.6,0,3.1,0.5,4.5,1.4
		c0.1,0.1,0.2,0.1,0.4,0.1c0.2,0,0.4-0.1,0.5-0.2l1.9-2.3c0.1-0.1,0.1-0.3,0.1-0.4c0-0.2-0.1-0.4-0.3-0.5c-2-1.4-4.4-2.1-7.3-2.2
		c-2.4,0-4.3,0.5-5.9,1.6c-1.5,1-2.3,2.6-2.3,4.8c0,1.8,0.9,3.3,1.7,4.1c0.4,0.4,1,0.7,1.9,1.1l0,0c1,0.4,1.5,0.6,2.1,0.7
		c0.6,0.1,1.2,0.3,2.2,0.5c1.1,0.2,2,0.4,2.6,0.6c0.6,0.2,1.1,0.5,1.4,0.9c0.2,0.3,0.3,0.6,0.3,0.9c0,0.3-0.1,0.6-0.2,0.9
		c-0.2,0.3-0.4,0.5-0.7,0.6c-0.6,0.3-1.4,0.4-2.5,0.5c-2.6,0-4.8-0.9-6.4-2.7c-0.1-0.1-0.3-0.2-0.5-0.2c-0.2,0-0.3,0.1-0.5,0.2
		l-2.3,2.4c-0.1,0.1-0.2,0.3-0.2,0.5c0,0.2,0.1,0.3,0.2,0.4c0.9,1,2.2,1.9,3.7,2.5c1.9,0.7,3.7,1.1,5.6,1.1c2.4,0,4.5-0.6,6.3-1.8
		c1.7-1.2,2.5-2.8,2.6-4.9C139.8,21.4,139.1,20,138.4,19.3z"/>
	<path class="st5" d="M117.6,9l-2.2,0c-0.8,0-1.4,0.6-1.4,1.4v17.3c0,0.8,0.6,1.4,1.4,1.4l2.2,0c0.8,0,1.4-0.6,1.4-1.4l0-17.3
		C119,9.7,118.4,9,117.6,9z"/>
	<path class="st5" d="M38.6,9h-2.8c-0.6,0-1.1,0.5-1.1,1.1l0,17.9c0,0.6,0.5,1.1,1.1,1.1h2.8c0.6,0,1.1-0.5,1.1-1.1l0-17.9
		C39.7,9.5,39.2,9,38.6,9z"/>
	<path class="st5" d="M35.8,5.5h2.7c0.6,0,1.1-0.5,1.1-1.1V1.3c0-0.6-0.5-1.1-1.1-1.1l-2.7,0c-0.6,0-1.1,0.5-1.1,1.1v3.1
		C34.7,5,35.2,5.5,35.8,5.5z"/>
	<path class="st5" d="M94,9h-2.2c-0.8,0-1.4,0.6-1.4,1.4v17.3c0,0.8,0.6,1.4,1.4,1.4H94c0.8,0,1.4-0.6,1.4-1.4V10.4
		C95.4,9.7,94.8,9,94,9z"/>
	<path class="st5" d="M91.5,5.5h2.7c0.6,0,1.1-0.5,1.1-1.1V1.3c0-0.6-0.5-1.1-1.1-1.1l-2.7,0c-0.6,0-1.1,0.5-1.1,1.1v3.1
		C90.4,5,90.9,5.5,91.5,5.5z"/>
	<path class="st5" d="M115.1,5.5h2.7c0.6,0,1.1-0.5,1.1-1.1V1.3c0-0.6-0.5-1.1-1.1-1.1l-2.7,0c-0.6,0-1.1,0.5-1.1,1.1v3.1
		C114,5,114.5,5.5,115.1,5.5z"/>
	<path class="st5" d="M63.1,9h-2.7c-0.6,0-1.2,0.5-1.2,1.2v2.7l-0.5-0.8c-0.6-1-1.3-1.7-2.3-2.2c-1-0.5-2.2-0.7-3.7-0.7
		c-1.7,0-3.2,0.3-4.7,1c-0.9,0.4-1.8,1-2.6,1.7l0,0l0,0c-2.1,1.8-3.1,4.4-3.1,7.6c0,3.2,1,5.7,3,7.4l0.1,0.1
		c1.3,1.1,2.7,1.9,4.3,2.3c0.8,0.2,1.7,0.3,2.6,0.3c1.5,0,2.8-0.3,3.8-0.8c1.1-0.5,1.9-1.3,2.6-2.4l0.5-0.8v3.5
		c0,1.8-0.6,3.3-1.7,4.4c-1.1,1-2.5,1.6-4.2,1.6c-2.6,0-4.9-1.3-6-3.7c0,0,0,0,0,0c-0.1-0.3-0.4-0.4-0.7-0.3l-3.6,1.3
		c-0.2,0.1-0.4,0.3-0.4,0.5c0,0.1,0,0.2,0,0.2c1.7,3.9,5.7,6.1,10.2,6.1c3.1,0,5.7-0.9,8-2.8c2.2-1.9,3.3-4.4,3.3-7.8l0-18.7
		C64.3,9.5,63.8,9,63.1,9z M57.4,23.8c-1.1,1.1-2.6,1.6-4.3,1.6c-0.9,0-1.8-0.2-2.6-0.5c-0.5-0.2-1-0.6-1.4-1c-1-1-1.7-2.5-1.7-4.5
		c0-1.9,0.6-3.5,1.6-4.6c0.8-0.9,2-1.4,3.3-1.6c0.3,0,0.5-0.1,0.8-0.1c1.7,0,3.2,0.6,4.3,1.6c1.1,1,1.8,2.6,1.8,4.5
		C59.2,21.2,58.6,22.8,57.4,23.8z"/>
	<path class="st5" d="M134.7,35.9c0,0.3,0.1,0.5,0.3,0.7c0.2,0.2,0.4,0.3,0.7,0.3c0.3,0,0.5-0.1,0.7-0.3c0.2-0.2,0.3-0.4,0.3-0.7
		c0-0.3-0.1-0.5-0.3-0.7c-0.2-0.2-0.4-0.3-0.7-0.3c-0.3,0-0.5,0.1-0.7,0.3C134.8,35.3,134.7,35.6,134.7,35.9z M139,41.5
		c0-0.2,0-0.4,0-0.6c0-1-0.3-1.9-0.9-2.6c-0.6-0.7-1.5-1-2.5-1c-1,0-1.8,0.4-2.5,1.1c-0.7,0.7-1,1.6-1,2.7c0,1.1,0.3,2,1,2.7
		c0.7,0.7,1.6,1,2.6,1c0.8,0,1.4-0.2,2-0.6c0.5-0.4,0.9-0.9,1.1-1.6l-1.5-0.2c-0.3,0.6-0.8,0.9-1.6,0.9c-0.5,0-1-0.2-1.4-0.5
		c-0.4-0.3-0.6-0.8-0.6-1.3H139z M133.7,40.3c0.1-0.5,0.3-0.9,0.6-1.2c0.3-0.3,0.7-0.4,1.2-0.4c0.5,0,0.9,0.1,1.2,0.4
		c0.3,0.3,0.5,0.7,0.6,1.2H133.7z M131.1,41c0-1.1-0.3-2-0.9-2.7c-0.6-0.7-1.4-1.1-2.3-1.1c-1,0-1.8,0.4-2.4,1.3v-1.2h-1.6v9.4h1.6
		v-3.2c0.6,0.8,1.3,1.1,2.3,1.1c0.9,0,1.7-0.3,2.4-1C130.7,43,131.1,42.1,131.1,41z M129.4,41c0,0.7-0.2,1.2-0.5,1.7
		c-0.4,0.4-0.8,0.6-1.4,0.6c-0.6,0-1.1-0.2-1.5-0.6c-0.4-0.4-0.6-1-0.6-1.7c0-0.7,0.2-1.3,0.6-1.7c0.4-0.4,0.9-0.6,1.5-0.6
		c0.6,0,1.1,0.2,1.4,0.7C129.2,39.8,129.4,40.4,129.4,41z M118.5,44.8c0.8,0,1.5-0.4,2-1.3v1.1h1.6v-7.2h-1.6v3.9c0,0.4,0,0.7-0.1,1
		c-0.1,0.3-0.3,0.6-0.5,0.8c-0.2,0.2-0.5,0.3-0.9,0.3c-0.7,0-1.1-0.3-1.2-0.9c0-0.2-0.1-0.5-0.1-0.9v-4h-1.6v4.1
		c0,0.7,0,1.3,0.1,1.6c0.1,0.5,0.4,0.9,0.8,1.2C117.4,44.6,117.9,44.8,118.5,44.8z M115,37.3c-0.1,0-0.2,0-0.4,0
		c-0.5,0-0.9,0.1-1.2,0.4c-0.4,0.3-0.6,0.7-0.8,1.2v-1.4H111v7.2h1.6v-3.2c0-0.5,0-0.9,0.1-1.2c0.2-0.9,0.8-1.3,1.7-1.3
		c0.2,0,0.5,0,0.7,0.1V37.3z M103.9,40.8c0-0.6,0.2-1.1,0.5-1.5c0.3-0.4,0.8-0.6,1.4-0.6c0.6,0,1,0.2,1.4,0.6
		c0.3,0.4,0.5,0.9,0.5,1.5c0,0.6-0.2,1.1-0.5,1.5c-0.3,0.4-0.8,0.5-1.4,0.5c-0.6,0-1-0.2-1.4-0.6S103.9,41.3,103.9,40.8z
		 M109.2,37.4h-1.6v1c-0.5-0.8-1.3-1.2-2.2-1.2c-0.9,0-1.7,0.3-2.3,1c-0.6,0.6-0.9,1.5-0.9,2.5c0,1,0.3,1.8,0.9,2.5
		c0.6,0.7,1.4,1,2.3,1c0.9,0,1.6-0.4,2.2-1.2v0.5c0,1.3-0.6,2-1.8,2c-1,0-1.6-0.4-1.8-1.1l-1.6,0.2c0.1,0.6,0.4,1.2,1,1.6
		c0.6,0.4,1.4,0.7,2.3,0.7c1.1,0,2-0.3,2.6-0.9c0.6-0.6,0.9-1.4,0.9-2.5V37.4z"/>
</g>
</svg>
